<?xml version="1.0" encoding="UTF-8"?>
<svg width="163px" height="27px" viewBox="0 0 163 27" version="1.1" xmlns="http://www.w3.org/2000/svg" xmlns:xlink="http://www.w3.org/1999/xlink">
    <!-- Generator: Sketch 61.2 (89653) - https://sketch.com -->
    <title>social</title>
    <desc>Created with Sketch.</desc>
    <g id="Page-1" stroke="none" stroke-width="1" fill="none" fill-rule="evenodd">
        <g id="Desktop-HD" transform="translate(-151.000000, -2414.000000)" fill="#6B6B6B" fill-rule="nonzero">
            <g id="Footer" transform="translate(0.000000, 2348.000000)">
                <g id="social" transform="translate(151.000000, 66.000000)">
                    <g id="facebook-square-brands">
                        <path d="M24,-4.26325641e-16 L2.88,-4.26325641e-16 C1.28941992,-4.26325641e-16 0,1.28941992 0,2.88 L0,24 C0,25.5905801 1.28941992,26.88 2.88,26.88 L11.115,26.88 L11.115,17.7414 L7.335,17.7414 L7.335,13.44 L11.115,13.44 L11.115,10.1616 C11.115,6.4326 13.335,4.3728 16.7352,4.3728 C18.3636,4.3728 20.0664,4.6632 20.0664,4.6632 L20.0664,8.3232 L18.1902,8.3232 C16.3416,8.3232 15.765,9.4704 15.765,10.647 L15.765,13.44 L19.8918,13.44 L19.2318,17.7414 L15.765,17.7414 L15.765,26.88 L24,26.88 C25.5905801,26.88 26.88,25.5905801 26.88,24 L26.88,2.88 C26.88,1.28941992 25.5905801,-4.26325641e-16 24,-4.26325641e-16 L24,-4.26325641e-16 Z" id="Path"></path>
                    </g>
                    <g id="instagram-square-brands" transform="translate(136.000000, 0.000000)">
                        <path d="M13.44,10.2396 C11.6726242,10.2402627 10.2403584,11.6734239 10.2408,13.4407997 C10.2412418,15.2081755 11.674224,16.6406206 13.4415999,16.6403998 C15.2089757,16.6401789 16.6416,15.2073759 16.6416,13.44 C16.6402757,11.6725482 15.2074522,10.2402617 13.44,10.2396 L13.44,10.2396 Z M20.9226,7.7796 C20.5932709,6.94499934 19.9326007,6.28432906 19.098,5.955 C17.838,5.4576 14.838,5.5692 13.44,5.5692 C12.042,5.5692 9.045,5.4534 7.7814,5.955 C6.94679934,6.28432906 6.28612906,6.94499934 5.9568,7.7796 C5.46,9.0396 5.571,12.0426 5.571,13.4394 C5.571,14.8362 5.46,17.8356 5.9592,19.0998 C6.28852906,19.9344007 6.94919934,20.5950709 7.7838,20.9244 C9.0438,21.4218 12.0438,21.3102 13.4424,21.3102 C14.841,21.3102 17.8368,21.426 19.1004,20.9244 C19.9350007,20.5950709 20.5956709,19.9344007 20.925,19.0998 C21.426,17.8398 21.3108,14.8368 21.3108,13.44 C21.3108,12.0432 21.426,9.0444 20.925,7.7802 L20.9226,7.7796 Z M13.44,18.3600037 C10.722759,18.3600037 8.52,16.157241 8.52,13.44 C8.52,10.722759 10.722759,8.52 13.44,8.52 C16.157241,8.52 18.3600037,10.722759 18.3600037,13.44 C18.3615948,14.7453534 17.8437513,15.9977015 16.9207264,16.9207264 C15.9977015,17.8437513 14.7453534,18.3615948 13.44,18.3600037 L13.44,18.3600037 Z M18.5628,9.462 C18.098261,9.46224271 17.6793286,9.18259796 17.501389,8.75348956 C17.3234495,8.32438116 17.4215536,7.83033546 17.7499464,7.50177094 C18.0783393,7.17320643 18.5723336,7.07484418 19.001535,7.25255946 C19.4307363,7.43027475 19.7106101,7.84906097 19.7106101,8.3136 C19.7118761,8.61826496 19.5917832,8.91089801 19.3768579,9.12683659 C19.1619326,9.34277518 18.8698676,9.46424316 18.5652,9.4644 L18.5628,9.462 Z M24,-4.26325641e-16 L2.88,-4.26325641e-16 C1.28941992,-4.26325641e-16 0,1.28941992 0,2.88 L0,24 C0,25.5905801 1.28941992,26.88 2.88,26.88 L24,26.88 C25.5905801,26.88 26.88,25.5905801 26.88,24 L26.88,2.88 C26.88,1.28941992 25.5905801,-4.26325641e-16 24,-4.26325641e-16 L24,-4.26325641e-16 Z M22.9728,17.4 C22.8954,18.9378 22.5444,20.3004 21.4218,21.42 C20.2992,22.5396 18.9378,22.8978 17.4018,22.971 C15.8172,23.0604 11.0664,23.0604 9.4818,22.971 C7.944,22.8936 6.5862,22.542 5.4618,21.42 C4.3374,20.298 3.984,18.9348 3.9108,17.4 C3.8214,15.8148 3.8214,11.0634 3.9108,9.48 C3.9882,7.9422 4.335,6.5796 5.4618,5.46 C6.5886,4.3404 7.95,3.9864 9.4818,3.9132 C11.0664,3.8238 15.8172,3.8238 17.4018,3.9132 C18.9396,3.9906 20.3016,4.3422 21.4218,5.4642 C22.542,6.5862 22.8996,7.9494 22.9728,9.4872 C23.0622,11.0664 23.0622,15.8136 22.9728,17.4 Z" id="Shape"></path>
                    </g>
                    <g id="twitter-square-brands" transform="translate(45.000000, 0.000000)">
                        <path d="M24,0 L2.88,0 C1.29,0 0,1.29 0,2.88 L0,24 C0,25.59 1.29,26.88 2.88,26.88 L24,26.88 C25.59,26.88 26.88,25.59 26.88,24 L26.88,2.88 C26.88,1.29 25.59,0 24,0 Z M21.066,9.528 C21.078,9.696 21.078,9.87 21.078,10.038 C21.078,15.24 17.118,21.234 9.882,21.234 C7.65,21.234 5.58,20.586 3.84,19.47 C4.158,19.506 4.464,19.518 4.788,19.518 C6.63,19.518 8.322,18.894 9.672,17.838 C7.944,17.802 6.492,16.668 5.994,15.108 C6.6,15.198 7.146,15.198 7.77,15.036 C5.97,14.67 4.62,13.086 4.62,11.172 L4.62,11.124 C5.142,11.418 5.754,11.598 6.396,11.622 C5.29970889,10.892782 4.64184443,9.66266562 4.644,8.346 C4.644,7.614 4.836,6.942 5.178,6.36 C7.116,8.748 10.026,10.308 13.29,10.476 C12.732,7.806 14.73,5.64 17.13,5.64 C18.264,5.64 19.284,6.114 20.004,6.882 C20.892,6.714 21.744,6.384 22.5,5.934 C22.206,6.846 21.588,7.614 20.772,8.1 C21.564,8.016 22.332,7.794 23.04,7.488 C22.506,8.274 21.834,8.97 21.066,9.528 L21.066,9.528 Z" id="Shape"></path>
                    </g>
                    <g id="youtube-square-brands" transform="translate(91.000000, 0.000000)">
                        <path d="M11.208,10.206 L16.92,13.452 L11.208,16.698 L11.208,10.206 Z M26.88,2.88 L26.88,24 C26.88,25.59 25.59,26.88 24,26.88 L2.88,26.88 C1.29,26.88 0,25.59 0,24 L0,2.88 C0,1.29 1.29,0 2.88,0 L24,0 C25.59,0 26.88,1.29 26.88,2.88 Z M24.36,13.458 C24.36,13.458 24.36,9.882 23.904,8.166 C23.652,7.218 22.914,6.474 21.972,6.222 C20.274,5.76 13.44,5.76 13.44,5.76 C13.44,5.76 6.606,5.76 4.908,6.222 C3.966,6.474 3.228,7.218 2.976,8.166 C2.52,9.876 2.52,13.458 2.52,13.458 C2.52,13.458 2.52,17.034 2.976,18.75 C3.228,19.698 3.966,20.412 4.908,20.664 C6.606,21.12 13.44,21.12 13.44,21.12 C13.44,21.12 20.274,21.12 21.972,20.658 C22.914,20.406 23.652,19.692 23.904,18.744 C24.36,17.034 24.36,13.458 24.36,13.458 L24.36,13.458 Z" id="Shape"></path>
                    </g>
                </g>
            </g>
        </g>
    </g>
</svg>